<?xml version="1.0" encoding="UTF-8" standalone="no"?>
<!-- Created with Inkscape (http://www.inkscape.org/) -->

<svg
   xmlns:dc="http://purl.org/dc/elements/1.1/"
   xmlns:cc="http://creativecommons.org/ns#"
   xmlns:rdf="http://www.w3.org/1999/02/22-rdf-syntax-ns#"
   xmlns:svg="http://www.w3.org/2000/svg"
   xmlns="http://www.w3.org/2000/svg"
   xmlns:xlink="http://www.w3.org/1999/xlink"
   xmlns:sodipodi="http://sodipodi.sourceforge.net/DTD/sodipodi-0.dtd"
   xmlns:inkscape="http://www.inkscape.org/namespaces/inkscape"
   width="100"
   height="100"
   viewBox="0 0 100 100"
   version="1.1"
   id="svg1702"
   inkscape:version="0.92.3 (2405546, 2018-03-11)"
   sodipodi:docname="AI.svg">
  <defs
     id="defs1696">
    <linearGradient
       id="linearGradient2654">
      <stop
         style="stop-color:#1976d2;stop-opacity:1;"
         offset="0"
         id="stop2650" />
      <stop
         style="stop-color:#ff4081;stop-opacity:1;"
         offset="1"
         id="stop2652" />
    </linearGradient>
    <linearGradient
       inkscape:collect="always"
       xlink:href="#linearGradient2654"
       id="linearGradient2656"
       x1="10.08466911"
       y1="295.7478943"
       x2="76.89186096"
       y2="225.9167938"
       gradientUnits="userSpaceOnUse"
       gradientTransform="matrix(1.391862609,0,0,1.391486338,-12.95412529,-42.27151402)" />
  </defs>
  <sodipodi:namedview
     id="base"
     pagecolor="#ffffff"
     bordercolor="#666666"
     borderopacity="1.0"
     inkscape:pageopacity="0.0"
     inkscape:pageshadow="2"
     inkscape:zoom="5.599999988"
     inkscape:cx="134.4053982"
     inkscape:cy="132.1160689"
     inkscape:document-units="mm"
     inkscape:current-layer="layer1"
     showgrid="false"
     units="px"
     showborder="false"
     inkscape:window-width="3706"
     inkscape:window-height="2049"
     inkscape:window-x="134"
     inkscape:window-y="55"
     inkscape:window-maximized="1" />
  <metadata
     id="metadata1699">
    <rdf:RDF>
      <cc:Work
         rdf:about="">
        <dc:format>image/svg+xml</dc:format>
        <dc:type
           rdf:resource="http://purl.org/dc/dcmitype/StillImage" />
        <dc:title></dc:title>
      </cc:Work>
    </rdf:RDF>
  </metadata>
  <g
     inkscape:label="Layer 1"
     inkscape:groupmode="layer"
     id="layer1"
     transform="translate(0,-270.5416499)">
    <path
       id="path2378-6-3"
       style="opacity:1;fill:none;fill-opacity:1;stroke:url(#linearGradient2656);stroke-width:4;stroke-miterlimit:4;stroke-dasharray:none;stroke-opacity:1"
       d="m 74.21256084,344.5052523 a 4.964982869,4.963640652 0 0 1 -4.96498285,4.9636408 4.964982869,4.963640652 0 0 1 -4.96498288,-4.9636408 4.964982869,4.963640652 0 0 1 4.96498288,-4.9636407 4.964982869,4.963640652 0 0 1 4.96498285,4.9636407 z m -26.23877965,-0.032869 h 15.58544293 v 0.065735 H 47.97378119 Z m -7.89136468,4.5691692 a 4.964982869,4.963640652 0 0 1 -4.96498285,4.9636407 4.964982869,4.963640652 0 0 1 -4.96498288,-4.9636407 4.964982869,4.963640652 0 0 1 4.96498288,-4.9636406 4.964982869,4.963640652 0 0 1 4.96498285,4.9636406 z m -4.9978648,-12.2611568 v 6.1798953 h -0.0657533 v -6.1798953 z M 4.505518291,336.7146597 H 35.08455037 v 0.065736 H 4.505518291 Z M 29.1002683,320.7060704 a 4.964982869,4.963640652 0 0 1 -4.96498287,4.9636406 4.964982869,4.963640652 0 0 1 -4.96498287,-4.9636406 4.964982869,4.963640652 0 0 1 4.96498287,-4.9636407 4.964982869,4.963640652 0 0 1 4.96498287,4.9636407 z m 1.38099399,0.1643387 H 48.0395464 v 0.065735 H 30.48126229 Z m 2.94927916,-23.9665984 v 6.1798953 h -0.0657533 v -6.1798953 z m 36.37601369,20.5150599 a 4.964982869,4.963640652 0 0 1 -4.96498286,4.9636408 4.964982869,4.963640652 0 0 1 -4.96498287,-4.9636408 4.964982869,4.963640652 0 0 1 4.96498287,-4.9636406 4.964982869,4.963640652 0 0 1 4.96498286,4.9636406 z m -5.07759809,9.9906918 h 23.87137506 v 0.065736 H 64.72895705 Z M 38.24109651,289.938057 a 4.964982869,4.963640652 0 0 1 -4.96498287,4.9636405 4.964982869,4.963640652 0 0 1 -4.96498288,-4.9636405 4.964982869,4.963640652 0 0 1 4.96498288,-4.9636407 4.964982869,4.963640652 0 0 1 4.96498287,4.9636407 z m 26.55361381,33.9213226 v 3.5501518 h -0.0657533 v -3.5501518 z M 9.493413141,303.0179563 H 33.36478818 v 0.065735 H 9.493413141 Z M 79.70364424,300.621392 a 4.964982869,4.963640652 0 0 1 -4.96498287,4.9636408 4.964982869,4.963640652 0 0 1 -4.96498286,-4.9636408 4.964982869,4.963640652 0 0 1 4.96498286,-4.9636406 4.964982869,4.963640652 0 0 1 4.96498287,4.9636406 z m -31.1708965,0.032869 h 19.53112395 v 0.065735 H 48.53274774 Z m -0.58383111,-26.060134 h 0.17909701 v 92.029519 h -0.17909701 z m 8.05792262,-1.5524753 a 18.66512162,15.61410136 0 0 0 -8.05792513,1.5524733 18.90639349,15.61410136 0 0 0 -7.99822611,-1.4863189 18.90639349,15.61410136 0 0 0 -17.86726034,10.5595503 13.71124497,12.82000026 0 0 0 -0.87462616,-0.040988 13.71124497,12.82000026 0 0 0 -13.711347509,12.8203079 13.71124497,12.82000026 0 0 0 1.99596019,6.6370207 19.10367721,17.32343535 0 0 0 -6.993413004,13.3819019 19.10367721,17.32343535 0 0 0 4.436426142,11.0751238 18.4460635,16.56738421 0 0 0 -3.12160983,9.2069787 18.4460635,16.56738421 0 0 0 14.752123881,16.2301401 20.91211396,15.51548616 0 0 0 20.89105016,15.0638077 20.91211396,15.51548616 0 0 0 8.67001959,-1.4180069 20.64524614,15.51548616 0 0 0 8.36577048,1.3518525 20.64524614,15.51548616 0 0 0 20.6234836,-15.0630888 18.21066528,16.56738421 0 0 0 14.56439574,-16.2308591 18.21066528,16.56738421 0 0 0 -3.08133096,-9.2062597 18.85988728,17.32343535 0 0 0 4.37960413,-11.0751237 18.85988728,17.32343535 0 0 0 -6.9042241,-13.382621 13.53627058,12.82000026 0 0 0 1.97006666,-6.6363016 13.53627058,12.82000026 0 0 0 -13.53656614,-12.8203078 13.53627058,12.82000026 0 0 0 -0.86311793,0.040988 18.66512162,15.61410136 0 0 0 -17.63925336,-10.5602694 z"
       inkscape:connector-curvature="0" />
  </g>
</svg>
