<?xml version="1.0" encoding="UTF-8" standalone="no"?>
<!-- Created with Inkscape (http://www.inkscape.org/) -->

<svg
   xmlns:dc="http://purl.org/dc/elements/1.1/"
   xmlns:cc="http://creativecommons.org/ns#"
   xmlns:rdf="http://www.w3.org/1999/02/22-rdf-syntax-ns#"
   xmlns:svg="http://www.w3.org/2000/svg"
   xmlns="http://www.w3.org/2000/svg"
   xmlns:xlink="http://www.w3.org/1999/xlink"
   xmlns:sodipodi="http://sodipodi.sourceforge.net/DTD/sodipodi-0.dtd"
   xmlns:inkscape="http://www.inkscape.org/namespaces/inkscape"
   width="100"
   height="100"
   viewBox="0 0 100 100"
   version="1.1"
   id="svg8"
   inkscape:version="0.92.3 (2405546, 2018-03-11)"
   sodipodi:docname="Digital Assets.svg">
  <defs
     id="defs2">
    <linearGradient
       id="linearGradient821">
      <stop
         style="stop-color:#1976d2;stop-opacity:1;"
         offset="0"
         id="stop817" />
      <stop
         style="stop-color:#ff4081;stop-opacity:1;"
         offset="1"
         id="stop819" />
    </linearGradient>
    <linearGradient
       inkscape:collect="always"
       xlink:href="#linearGradient821"
       id="linearGradient4657"
       x1="0.2857142687"
       y1="100"
       x2="99.80357361"
       y2="0.0892855823"
       gradientUnits="userSpaceOnUse" />
  </defs>
  <sodipodi:namedview
     id="base"
     pagecolor="#ffffff"
     bordercolor="#666666"
     borderopacity="1.0"
     inkscape:pageopacity="0.0"
     inkscape:pageshadow="2"
     inkscape:zoom="11.19999997"
     inkscape:cx="44.78810641"
     inkscape:cy="45.04730606"
     inkscape:document-units="px"
     inkscape:current-layer="layer1"
     showgrid="false"
     units="px"
     inkscape:window-width="3706"
     inkscape:window-height="2049"
     inkscape:window-x="134"
     inkscape:window-y="55"
     inkscape:window-maximized="1" />
  <metadata
     id="metadata5">
    <rdf:RDF>
      <cc:Work
         rdf:about="">
        <dc:format>image/svg+xml</dc:format>
        <dc:type
           rdf:resource="http://purl.org/dc/dcmitype/StillImage" />
        <dc:title></dc:title>
      </cc:Work>
    </rdf:RDF>
  </metadata>
  <g
     inkscape:label="Layer 1"
     inkscape:groupmode="layer"
     id="layer1">
    <path
       id="rect844-7-56"
       style="opacity:1;fill:none;fill-opacity:1;stroke:url(#linearGradient4657);stroke-width:4;stroke-miterlimit:4;stroke-dasharray:none;stroke-opacity:1"
       d="m 63.48214722,47.4107132 h 0.17857143 v 4.10714435 h -0.17857143 z m -0.52549617,5.667081 0.12626908,0.12626908 -11.93242802,11.93242802 -0.12626908,-0.12626908 z m -25.96050764,8.65049207 0.12626908,-0.12626908 11.93242802,11.93242801 -0.12626908,0.12626908 z m -0.67730066,-5.75126818 h 0.17857143 v 4.10714435 h -0.17857143 z m 5.2678566,-5.71428681 a 5,5 0 0 1 -5,5 5,5 0 0 1 -5,-5 5,5 0 0 1 5,-5 5,5 0 0 1 5,5 z M 68.66071701,41.9642868 a 5,5 0 0 1 -5,5 5,5 0 0 1 -5,-5 5,5 0 0 1 5,-5 5,5 0 0 1 5,5 z M 55,30 a 5,5 0 0 1 -5,5 5,5 0 0 1 -5,-5 5,5 0 0 1 5,-5 5,5 0 0 1 5,5 z m -5,5.17856979 h 0.17857143 V 75 H 50 Z M 95,50 A 45,45 0 0 1 50,95 45,45 0 0 1 5,50 45,45 0 0 1 50,5 45,45 0 0 1 95,50 Z" />
  </g>
</svg>
