<?xml version="1.0" encoding="UTF-8" standalone="no"?>
<!-- Created with Inkscape (http://www.inkscape.org/) -->

<svg
   xmlns:dc="http://purl.org/dc/elements/1.1/"
   xmlns:cc="http://creativecommons.org/ns#"
   xmlns:rdf="http://www.w3.org/1999/02/22-rdf-syntax-ns#"
   xmlns:svg="http://www.w3.org/2000/svg"
   xmlns="http://www.w3.org/2000/svg"
   xmlns:xlink="http://www.w3.org/1999/xlink"
   xmlns:sodipodi="http://sodipodi.sourceforge.net/DTD/sodipodi-0.dtd"
   xmlns:inkscape="http://www.inkscape.org/namespaces/inkscape"
   inkscape:version="0.92.3 (2405546, 2018-03-11)"
   sodipodi:docname="ID.svg"
   id="svg8"
   version="1.1"
   viewBox="0 0 568 568"
   height="568"
   width="568"
   inkscape:export-filename="/home/daniel/Bilder/Totem/Homepage/ID.png"
   inkscape:export-xdpi="96"
   inkscape:export-ydpi="96">
  <sodipodi:namedview
     inkscape:window-maximized="1"
     inkscape:window-y="55"
     inkscape:window-x="134"
     inkscape:window-height="2049"
     inkscape:window-width="3706"
     inkscape:snap-smooth-nodes="true"
     inkscape:snap-nodes="true"
     inkscape:object-nodes="true"
     inkscape:object-paths="false"
     showborder="false"
     showgrid="false"
     inkscape:current-layer="icon"
     inkscape:document-units="px"
     inkscape:cy="1022.918588"
     inkscape:cx="347.7752055"
     inkscape:zoom="0.3535533909"
     inkscape:pageshadow="2"
     inkscape:pageopacity="0.0"
     borderopacity="1.0"
     bordercolor="#666666"
     pagecolor="#ffffff"
     id="base">
    <inkscape:grid
       spacingy="13.2291667"
       spacingx="13.2291667"
       id="grid817"
       type="xygrid" />
  </sodipodi:namedview>
  <defs
     id="defs2">
    <linearGradient
       id="linearGradient1077">
      <stop
         style="stop-color:#1976d2;stop-opacity:1;"
         offset="0"
         id="stop1073" />
      <stop
         offset="1"
         id="stop1075"
         style="stop-color:#ff4081;stop-opacity:1" />
    </linearGradient>
    <linearGradient
       id="linearGradient4927">
      <stop
         id="stop4923"
         offset="0"
         style="stop-color:#000000;stop-opacity:1;" />
      <stop
         style="stop-color:#f60000;stop-opacity:0.4980392158;"
         offset="0.9636803865"
         id="stop4939" />
      <stop
         id="stop4925"
         offset="1"
         style="stop-color:#000000;stop-opacity:0;" />
    </linearGradient>
    <linearGradient
       inkscape:collect="always"
       xlink:href="#linearGradient1077"
       id="linearGradient1061"
       x1="-205.3287048"
       y1="491.1033936"
       x2="189.8780823"
       y2="92.39661407"
       gradientUnits="userSpaceOnUse"
       gradientTransform="translate(286.1635193,-18.92926995)" />
    <linearGradient
       inkscape:collect="always"
       xlink:href="#linearGradient1077"
       id="linearGradient1063"
       x1="-205.3287048"
       y1="491.1033936"
       x2="189.8780823"
       y2="92.39661407"
       gradientUnits="userSpaceOnUse"
       gradientTransform="translate(286.1635193,-18.92926995)" />
    <linearGradient
       inkscape:collect="always"
       xlink:href="#linearGradient1077"
       id="linearGradient1065"
       x1="-209.8287048"
       y1="496.1033936"
       x2="282.8780823"
       y2="2.896616459"
       gradientUnits="userSpaceOnUse"
       gradientTransform="translate(286.1635193,-18.92926995)" />
    <linearGradient
       inkscape:collect="always"
       xlink:href="#linearGradient1077"
       id="linearGradient1067"
       x1="-205.3287048"
       y1="491.1033936"
       x2="189.8780823"
       y2="92.39661407"
       gradientUnits="userSpaceOnUse"
       gradientTransform="translate(286.1635193,-18.92926995)" />
    <linearGradient
       inkscape:collect="always"
       xlink:href="#linearGradient1077"
       id="linearGradient1069"
       x1="-205.3287048"
       y1="491.1033936"
       x2="189.8780823"
       y2="92.39661407"
       gradientUnits="userSpaceOnUse"
       gradientTransform="translate(286.1635193,-18.92926995)" />
    <linearGradient
       inkscape:collect="always"
       xlink:href="#linearGradient1077"
       id="linearGradient1079"
       gradientUnits="userSpaceOnUse"
       x1="-205.3287048"
       y1="491.1033936"
       x2="190.3780823"
       y2="92.39661407"
       gradientTransform="translate(286.1635193,-18.92926995)" />
  </defs>
  <metadata
     id="metadata5">
    <rdf:RDF>
      <cc:Work
         rdf:about="">
        <dc:format>image/svg+xml</dc:format>
        <dc:type
           rdf:resource="http://purl.org/dc/dcmitype/StillImage" />
        <dc:title />
      </cc:Work>
    </rdf:RDF>
  </metadata>
  <g
     style="display:inline"
     id="icon"
     inkscape:groupmode="layer"
     inkscape:label="icon">
    <path
       inkscape:connector-curvature="0"
       id="path4735"
       d="m 286.1635193,211.9248566 c -36.0464523,10e-8 -65.590526,29.2405821 -66.1210288,65.1670818 a 13.23048962,13.23048962 0 0 0 -0.024805,0.9787517 c 0,51.0549595 -10.9356163,101.1074329 -31.6326946,146.9589888 a 13.23048962,13.23048962 0 1 0 24.1153239,10.8856405 c 22.2300017,-49.2475386 33.9757041,-103.0114722 33.9757041,-157.8446293 0,-22.0754962 17.6120038,-39.6875 39.6875001,-39.6875001 22.0754963,10e-8 39.6875,17.6120039 39.6875001,39.6875001 a 13.23048962,13.23048962 0 1 0 26.4583334,0 c -10e-8,-36.374641 -29.7711925,-66.1458334 -66.1458332,-66.1458335 z m 49.6651856,108.8052453 a 13.23048962,13.23048962 0 0 0 -13.1981608,11.8581908 c -9.0785573,76.569834 -37.179841,149.9696151 -82.1190188,213.3352993 a 13.23048962,13.23048962 0 1 0 21.5816285,15.3060424 c 47.5056603,-66.9845068 77.214319,-144.579634 86.8117556,-225.5257695 a 13.23048962,13.23048962 0 0 0 -13.0762045,-14.973763 z M 178.4424456,459.5898435 a 13.23048962,13.23048962 0 0 0 -11.8643921,6.4187298 c -9.2430603,14.938775 -19.6224256,29.2500172 -31.0895753,42.8004881 a 13.23048962,13.23048962 0 1 0 20.1972169,17.0919802 c 12.3157481,-14.5532407 23.4643212,-29.9256406 33.3922771,-45.9713543 a 13.23048962,13.23048962 0 0 0 -10.6355266,-20.3398438 z"
       style="color:#000000;font-style:normal;font-variant:normal;font-weight:normal;font-stretch:normal;font-size:medium;line-height:normal;font-family:sans-serif;font-variant-ligatures:normal;font-variant-position:normal;font-variant-caps:normal;font-variant-numeric:normal;font-variant-alternates:normal;font-feature-settings:normal;text-indent:0;text-align:start;text-decoration:none;text-decoration-line:none;text-decoration-style:solid;text-decoration-color:#000000;letter-spacing:normal;word-spacing:normal;text-transform:none;writing-mode:lr-tb;direction:ltr;text-orientation:mixed;dominant-baseline:auto;baseline-shift:baseline;text-anchor:start;white-space:normal;shape-padding:0;clip-rule:nonzero;display:inline;overflow:visible;visibility:visible;opacity:1;isolation:auto;mix-blend-mode:normal;color-interpolation:sRGB;color-interpolation-filters:linearRGB;solid-color:#000000;solid-opacity:1;vector-effect:none;fill:url(#linearGradient1079);fill-opacity:1;fill-rule:nonzero;stroke:none;stroke-width:26.4583339691;stroke-linecap:round;stroke-linejoin:miter;stroke-miterlimit:4;stroke-dasharray:none;stroke-dashoffset:0;stroke-opacity:1;color-rendering:auto;image-rendering:auto;shape-rendering:auto;text-rendering:auto;enable-background:accumulate" />
    <path
       inkscape:connector-curvature="0"
       id="path4731"
       d="m 286.1635193,159.0081898 c -13.7940178,0 -27.0915182,2.3568677 -39.4482382,6.6946819 a 13.23048962,13.23048962 0 1 0 8.7638061,24.9643677 c 9.5919177,-3.367233 19.8971754,-5.2007162 30.6844321,-5.2007162 24.5652352,0 48.1110301,9.7531648 65.4812745,27.1234091 17.3702444,17.3702443 27.1228924,40.9155226 27.1228924,65.4807578 0,95.1705654 -26.3224727,188.4841154 -76.05789,269.6248869 a 13.23048962,13.23048962 0 1 0 22.5577963,13.8270628 c 52.2850288,-85.300331 79.9584271,-183.4026081 79.9584271,-283.4519497 0,-31.5722564 -12.5478502,-61.8647367 -34.8728069,-84.1896934 -22.3249567,-22.3249566 -52.6174369,-34.8728068 -84.1896934,-34.8728069 z m -76.8903974,32.4316123 a 13.23048962,13.23048962 0 0 0 -9.0108195,4.1873413 c -20.3146862,21.1618035 -32.8834288,49.9339429 -33.1375122,81.4746137 a 13.23048962,13.23048962 0 0 0 -0.023771,0.968933 c 0,73.3076643 -26.4621766,144.1426255 -74.52620052,199.4948004 a 13.23048962,13.23048962 0 1 0 19.97810872,17.3472615 c 52.2391451,-60.1603872 81.0064252,-137.1664667 81.0064252,-216.8420619 0,-24.9637675 9.8023144,-47.4661024 25.7901571,-64.1206341 a 13.23048962,13.23048962 0 0 0 -10.0763878,-22.5102539 z"
       style="color:#000000;font-style:normal;font-variant:normal;font-weight:normal;font-stretch:normal;font-size:medium;line-height:normal;font-family:sans-serif;font-variant-ligatures:normal;font-variant-position:normal;font-variant-caps:normal;font-variant-numeric:normal;font-variant-alternates:normal;font-feature-settings:normal;text-indent:0;text-align:start;text-decoration:none;text-decoration-line:none;text-decoration-style:solid;text-decoration-color:#000000;letter-spacing:normal;word-spacing:normal;text-transform:none;writing-mode:lr-tb;direction:ltr;text-orientation:mixed;dominant-baseline:auto;baseline-shift:baseline;text-anchor:start;white-space:normal;shape-padding:0;clip-rule:nonzero;display:inline;overflow:visible;visibility:visible;opacity:1;isolation:auto;mix-blend-mode:normal;color-interpolation:sRGB;color-interpolation-filters:linearRGB;solid-color:#000000;solid-opacity:1;vector-effect:none;fill:url(#linearGradient1069);fill-opacity:1;fill-rule:nonzero;stroke:none;stroke-width:26.4583339691;stroke-linecap:round;stroke-linejoin:miter;stroke-miterlimit:4;stroke-dasharray:none;stroke-dashoffset:0;stroke-opacity:1;color-rendering:auto;image-rendering:auto;shape-rendering:auto;text-rendering:auto;enable-background:accumulate" />
    <path
       inkscape:connector-curvature="0"
       id="path4727"
       d="m 285.5904276,265.0399609 a 13.23048962,13.23048962 0 0 0 -12.656075,13.0307292 c 0,92.2055962 -31.0699379,181.7148188 -88.1982343,254.0904344 a 13.23048962,13.23048962 0 1 0 20.7682414,16.3927978 C 266.3154446,471.5125966 299.392686,376.2203408 299.392686,278.0706901 a 13.23048962,13.23048962 0 0 0 -13.8022584,-13.0307292 z"
       style="color:#000000;font-style:normal;font-variant:normal;font-weight:normal;font-stretch:normal;font-size:medium;line-height:normal;font-family:sans-serif;font-variant-ligatures:normal;font-variant-position:normal;font-variant-caps:normal;font-variant-numeric:normal;font-variant-alternates:normal;font-feature-settings:normal;text-indent:0;text-align:start;text-decoration:none;text-decoration-line:none;text-decoration-style:solid;text-decoration-color:#000000;letter-spacing:normal;word-spacing:normal;text-transform:none;writing-mode:lr-tb;direction:ltr;text-orientation:mixed;dominant-baseline:auto;baseline-shift:baseline;text-anchor:start;white-space:normal;shape-padding:0;clip-rule:nonzero;display:inline;overflow:visible;visibility:visible;opacity:1;isolation:auto;mix-blend-mode:normal;color-interpolation:sRGB;color-interpolation-filters:linearRGB;solid-color:#000000;solid-opacity:1;vector-effect:none;fill:url(#linearGradient1067);fill-opacity:1;fill-rule:nonzero;stroke:none;stroke-width:26.4583339691;stroke-linecap:round;stroke-linejoin:round;stroke-miterlimit:4;stroke-dasharray:none;stroke-dashoffset:0;stroke-opacity:1;color-rendering:auto;image-rendering:auto;shape-rendering:auto;text-rendering:auto;enable-background:accumulate" />
    <path
       inkscape:connector-curvature="0"
       id="path4723"
       d="m 286.1635193,106.091523 c -45.6066285,0 -89.3588084,18.1228463 -121.6075646,50.3716026 -32.0193629,32.0193628 -50.0915257,75.3815424 -50.3473146,120.637081 a 13.23048962,13.23048962 0 0 0 -0.024288,0.9704835 c 0,12.3122492 -0.9038081,24.5418544 -2.6783895,36.5993165 a 13.23048962,13.23048962 0 1 0 26.1761801,3.8529948 c 1.9614389,-13.3270729 2.9605428,-26.84525 2.9605428,-40.4523113 0,-38.599607 15.3281607,-75.604585 42.6222047,-102.898629 27.294044,-27.2940439 64.299022,-42.6222047 102.8986291,-42.6222047 11.8370744,0 23.5220612,1.4418382 34.8252646,4.2281658 a 13.23048962,13.23048962 0 1 0 6.3329468,-25.6893881 c -13.3587117,-3.2930263 -27.1723423,-4.997111 -41.1582114,-4.9971111 z m 95.2975425,32.160311 a 13.23048962,13.23048962 0 0 0 -7.3571736,23.8750285 c 5.2476236,3.9803198 10.2472492,8.3341878 14.9582601,13.0451986 27.294044,27.294044 42.6222047,64.299022 42.6222047,102.898629 0,47.5078529 -5.9505229,94.6638767 -17.5973755,140.3950483 a 13.23048962,13.23048962 0 1 0 25.6402954,6.5298342 c 12.1885432,-47.8581105 18.4154135,-97.2077683 18.4154135,-146.9248825 0,-45.6066284 -18.1228463,-89.3588083 -50.3716025,-121.6075645 -5.5662048,-5.5662048 -11.4757237,-10.7122139 -17.6779908,-15.4166301 a 13.23048962,13.23048962 0 0 0 -8.6320313,-2.7946615 z M 113.2557267,350.8843337 a 13.23048962,13.23048962 0 0 0 -12.7914673,9.0945354 c -9.84975132,28.5761163 -24.84518882,55.3555055 -44.47997252,78.9347171 a 13.23048962,13.23048962 0 1 0 20.3320924,16.9307495 C 98.01604598,429.785427 114.5919137,400.1839844 125.4782365,368.6005652 A 13.23048962,13.23048962 0 0 0 113.2557267,350.8843337 Z M 409.1839176,467.082926 a 13.23048962,13.23048962 0 0 0 -12.9986899,8.795329 c -7.1732794,19.3416021 -15.4106391,38.3249396 -24.6909994,56.8611288 a 13.23048962,13.23048962 0 1 0 23.6585043,11.8447551 c 9.7119256,-19.398179 18.3328277,-39.2646676 25.8397665,-59.5059288 A 13.23048962,13.23048962 0 0 0 409.1839176,467.082926 Z"
       style="color:#000000;font-style:normal;font-variant:normal;font-weight:normal;font-stretch:normal;font-size:medium;line-height:normal;font-family:sans-serif;font-variant-ligatures:normal;font-variant-position:normal;font-variant-caps:normal;font-variant-numeric:normal;font-variant-alternates:normal;font-feature-settings:normal;text-indent:0;text-align:start;text-decoration:none;text-decoration-line:none;text-decoration-style:solid;text-decoration-color:#000000;letter-spacing:normal;word-spacing:normal;text-transform:none;writing-mode:lr-tb;direction:ltr;text-orientation:mixed;dominant-baseline:auto;baseline-shift:baseline;text-anchor:start;white-space:normal;shape-padding:0;clip-rule:nonzero;display:inline;overflow:visible;visibility:visible;opacity:1;isolation:auto;mix-blend-mode:normal;color-interpolation:sRGB;color-interpolation-filters:linearRGB;solid-color:#000000;solid-opacity:1;vector-effect:none;fill:url(#linearGradient1065);fill-opacity:1;fill-rule:nonzero;stroke:none;stroke-width:26.4583339691;stroke-linecap:round;stroke-linejoin:miter;stroke-miterlimit:4;stroke-dasharray:none;stroke-dashoffset:0;stroke-opacity:1;color-rendering:auto;image-rendering:auto;shape-rendering:auto;text-rendering:auto;enable-background:accumulate" />
    <path
       inkscape:connector-curvature="0"
       id="path4719"
       d="m 286.1635193,53.17485625 c -59.6410024,0 -116.8528785,23.6978408 -159.0254358,65.87039815 -10.9217602,10.9217601 -20.6057625,22.8534502 -28.95895592,35.5735393 a 13.23048962,13.23048962 0 1 0 22.11596272,14.5231446 c 7.3701302,-11.2230984 15.9133296,-21.7491493 25.5519288,-31.3877483 37.217845,-37.217845 87.6825191,-58.12100035 140.3165002,-58.12100035 52.633981,0 103.0986554,20.90315535 140.3165002,58.12100035 37.217845,37.2178448 58.1210003,87.6825191 58.1210003,140.3165001 0,72.8880918 -12.8158983,145.2081271 -37.8622885,213.6577602 a 13.23048962,13.23048962 0 1 0 24.8470622,9.0919515 c 26.11213,-71.3622085 39.4735597,-146.7601852 39.4735597,-222.7497117 0,-59.6410024 -23.6978408,-116.8528786 -65.8703981,-159.0254357 C 403.016398,76.87269705 345.8045217,53.17485625 286.1635193,53.17485625 Z M 82.30516108,210.1017121 a 13.23048962,13.23048962 0 0 0 -13.434839,9.9859538 c -5.0052392,18.7553245 -7.6026367,38.2372202 -7.6026367,57.9830242 0,40.6079098 -12.4565187,80.2346262 -35.6908448,113.5388065 a 13.23048962,13.23048962 0 1 0 21.6994507,15.1380941 c 26.3304864,-37.7422294 40.4497275,-82.657661 40.4497275,-128.6769006 0,-17.4259354 2.2917654,-34.6120179 6.7081177,-51.1607016 a 13.23048962,13.23048962 0 0 0 -12.1289754,-16.8082764 z"
       style="color:#000000;font-style:normal;font-variant:normal;font-weight:normal;font-stretch:normal;font-size:medium;line-height:normal;font-family:sans-serif;font-variant-ligatures:normal;font-variant-position:normal;font-variant-caps:normal;font-variant-numeric:normal;font-variant-alternates:normal;font-feature-settings:normal;text-indent:0;text-align:start;text-decoration:none;text-decoration-line:none;text-decoration-style:solid;text-decoration-color:#000000;letter-spacing:normal;word-spacing:normal;text-transform:none;writing-mode:lr-tb;direction:ltr;text-orientation:mixed;dominant-baseline:auto;baseline-shift:baseline;text-anchor:start;white-space:normal;shape-padding:0;clip-rule:nonzero;display:inline;overflow:visible;visibility:visible;opacity:1;isolation:auto;mix-blend-mode:normal;color-interpolation:sRGB;color-interpolation-filters:linearRGB;solid-color:#000000;solid-opacity:1;vector-effect:none;fill:url(#linearGradient1063);fill-opacity:1;fill-rule:nonzero;stroke:none;stroke-width:26.4583339691;stroke-linecap:round;stroke-linejoin:miter;stroke-miterlimit:4;stroke-dasharray:none;stroke-dashoffset:0;stroke-opacity:1;color-rendering:auto;image-rendering:auto;shape-rendering:auto;text-rendering:auto;enable-background:accumulate" />
    <path
       inkscape:connector-curvature="0"
       id="path4715"
       d="m 286.1635193,0.2581894533 c -73.6753764,0 -144.3469487,29.2728354967 -196.44330702,81.3691936967 C 37.62385418,133.7237414 8.351018576,204.3953138 8.351018576,278.0706901 c 0,15.781944 -2.5671817,31.4586965 -7.6010865002,46.4162885 a 13.23048962,13.23048962 0 1 0 25.0765056042,8.439278 c 5.9491169,-17.6770258 8.9829143,-36.2043134 8.9829143,-54.8555665 0,-66.6683549 26.4781501,-130.5927254 73.61979592,-177.7343713 47.141646,-47.14164595 111.0660164,-73.61979595 177.7343714,-73.61979595 66.668355,0 130.5927254,26.47815 177.7343714,73.61979595 18.315709,18.315709 33.5102723,39.16329 45.2468507,61.7233644 A 13.23048962,13.23048962 0 1 0 532.6166937,149.849059 C 519.6449023,124.9146556 502.8475649,101.8681219 482.6068263,81.62738315 430.510468,29.53102495 359.8388956,0.2581894533 286.1635193,0.2581894533 Z M 543.4956163,205.598111 a 13.23048962,13.23048962 0 0 0 -12.3212118,16.3561076 c 4.1836868,18.2643548 6.3432821,37.0775085 6.3432821,56.1164715 0,36.2813305 -2.9262851,72.5035813 -8.7508871,108.3143191 a 13.23048962,13.23048962 0 1 0 26.1146851,4.2478029 c 6.0530172,-37.2150768 9.0945354,-74.8579981 9.0945354,-112.562122 0,-21.0400086 -2.3872635,-41.8366789 -7.0114584,-62.0241212 A 13.23048962,13.23048962 0 0 0 543.4956163,205.598111 Z"
       style="color:#000000;font-style:normal;font-variant:normal;font-weight:normal;font-stretch:normal;font-size:medium;line-height:normal;font-family:sans-serif;font-variant-ligatures:normal;font-variant-position:normal;font-variant-caps:normal;font-variant-numeric:normal;font-variant-alternates:normal;font-feature-settings:normal;text-indent:0;text-align:start;text-decoration:none;text-decoration-line:none;text-decoration-style:solid;text-decoration-color:#000000;letter-spacing:normal;word-spacing:normal;text-transform:none;writing-mode:lr-tb;direction:ltr;text-orientation:mixed;dominant-baseline:auto;baseline-shift:baseline;text-anchor:start;white-space:normal;shape-padding:0;clip-rule:nonzero;display:inline;overflow:visible;visibility:visible;opacity:1;isolation:auto;mix-blend-mode:normal;color-interpolation:sRGB;color-interpolation-filters:linearRGB;solid-color:#000000;solid-opacity:1;vector-effect:none;fill:url(#linearGradient1061);fill-opacity:1;fill-rule:nonzero;stroke:none;stroke-width:26.4583339691;stroke-linecap:round;stroke-linejoin:miter;stroke-miterlimit:4;stroke-dasharray:none;stroke-dashoffset:0;stroke-opacity:1;color-rendering:auto;image-rendering:auto;shape-rendering:auto;text-rendering:auto;enable-background:accumulate" />
  </g>
</svg>
