<svg xmlns="http://www.w3.org/2000/svg" xmlns:xlink="http://www.w3.org/1999/xlink" width="500" height="500" viewBox="0 0 500 500"><defs><style>.cls-1{fill:#fff;}.cls-2{fill:url(#Unbenannter_Verlauf_276);}.cls-3{fill:url(#Unbenannter_Verlauf_173);}.cls-4{fill:url(#Unbenannter_Verlauf_269);}.cls-5{fill:url(#Unbenannter_Verlauf_158);}.cls-6{fill:url(#Unbenannter_Verlauf_232);}.cls-7{fill:url(#Unbenannter_Verlauf_249);}.cls-8{fill:url(#Unbenannter_Verlauf_265);}.cls-9{fill:url(#Unbenannter_Verlauf_240);}.cls-10{fill:url(#Unbenannter_Verlauf_257);}.cls-11{fill:url(#Unbenannter_Verlauf_119);}.cls-12{fill:url(#Unbenannter_Verlauf_283);}.cls-13{fill:url(#Unbenannter_Verlauf_110);}.cls-14{fill:url(#Unbenannter_Verlauf_99);}.cls-15{fill:url(#Unbenannter_Verlauf_103);}</style><linearGradient id="Unbenannter_Verlauf_276" x1="63.24" y1="207.85" x2="125.84" y2="316.28" gradientUnits="userSpaceOnUse"><stop offset="0" stop-color="#214cd4"/><stop offset="1" stop-color="#2869f3"/></linearGradient><linearGradient id="Unbenannter_Verlauf_173" x1="186.46" y1="468.46" x2="60.28" y2="342.28" gradientUnits="userSpaceOnUse"><stop offset="0" stop-color="#217aff"/><stop offset="1" stop-color="#4ca7ff"/></linearGradient><linearGradient id="Unbenannter_Verlauf_269" x1="104.8" y1="301.47" x2="104.8" y2="384.05" gradientUnits="userSpaceOnUse"><stop offset="0" stop-color="#0260da"/><stop offset="1" stop-color="#307cf6"/></linearGradient><linearGradient id="Unbenannter_Verlauf_158" x1="107.68" y1="197.72" x2="107.68" y2="370.97" gradientUnits="userSpaceOnUse"><stop offset="0" stop-color="#0273f0"/><stop offset="1" stop-color="#4997f6"/></linearGradient><linearGradient id="Unbenannter_Verlauf_232" x1="364.63" y1="132.59" x2="364.63" y2="339.64" gradientUnits="userSpaceOnUse"><stop offset="0" stop-color="#51298d"/><stop offset="1" stop-color="#2a3fc9"/></linearGradient><linearGradient id="Unbenannter_Verlauf_249" x1="442.16" y1="198.15" x2="500" y2="198.15" gradientUnits="userSpaceOnUse"><stop offset="0" stop-color="#6f2b9a"/><stop offset="1" stop-color="#2c3cc3"/></linearGradient><linearGradient id="Unbenannter_Verlauf_265" x1="268.44" y1="420.24" x2="415.97" y2="420.24" gradientUnits="userSpaceOnUse"><stop offset="0" stop-color="#0042c8"/><stop offset="1" stop-color="#0d5afb"/></linearGradient><linearGradient id="Unbenannter_Verlauf_240" x1="339" y1="192.28" x2="412.67" y2="319.88" gradientUnits="userSpaceOnUse"><stop offset="0" stop-color="#2e31a2"/><stop offset="1" stop-color="#1549e9"/></linearGradient><linearGradient id="Unbenannter_Verlauf_257" x1="381.86" y1="285.74" x2="456.12" y2="414.35" gradientUnits="userSpaceOnUse"><stop offset="0" stop-color="#0039b4"/><stop offset="1" stop-color="#004cf3"/></linearGradient><linearGradient id="Unbenannter_Verlauf_119" x1="53.46" y1="62.68" x2="165.14" y2="62.68" gradientUnits="userSpaceOnUse"><stop offset="0" stop-color="#7c1d70"/><stop offset="1" stop-color="#a934bb"/></linearGradient><linearGradient id="Unbenannter_Verlauf_283" x1="84.19" y1="75.66" x2="84.19" y2="213.15" gradientUnits="userSpaceOnUse"><stop offset="0" stop-color="#732580"/><stop offset="1" stop-color="#af299e"/></linearGradient><linearGradient id="Unbenannter_Verlauf_110" x1="148.44" y1="2.45" x2="227.16" y2="47.91" gradientUnits="userSpaceOnUse"><stop offset="0" stop-color="#74165f"/><stop offset="1" stop-color="#aa31b4"/></linearGradient><linearGradient id="Unbenannter_Verlauf_99" x1="348.01" y1="5.87" x2="348.01" y2="95.22" gradientUnits="userSpaceOnUse"><stop offset="0" stop-color="#6e1a67"/><stop offset="1" stop-color="#9330b5"/></linearGradient><linearGradient id="Unbenannter_Verlauf_103" x1="294.15" y1="80.78" x2="456.59" y2="80.78" gradientUnits="userSpaceOnUse"><stop offset="0" stop-color="#7e1a6d"/><stop offset="1" stop-color="#a734c4"/></linearGradient></defs><title>logo</title><g id="background"><circle class="cls-1" cx="250" cy="250" r="249.8"/></g><g id="bottom-left"><path class="cls-2" d="M.3,244.2q-.2,3.1-.3,6.2A250.2,250.2,0,0,0,31.1,371L183.8,197.8Z"/><path class="cls-3" d="M31.3,371.3a249.9,249.9,0,0,0,137,115.4L173.9,384Z"/><path class="cls-4" d="M31.1,371h0l.2.3L173.9,384l4.6-82.6Z"/><polygon class="cls-5" points="184.3 197.7 183.8 197.8 31.1 371 178.5 301.5 184.3 197.7"/></g><g id="botton-right"><polygon class="cls-6" points="442.1 132.6 307.3 166.7 287.1 339.6 442.2 132.7 442.1 132.6"/><path class="cls-7" d="M500,250.4a250.6,250.6,0,0,0-33.2-124l-24.5,6.2v.2l57,137.2h.1C499.7,263.5,500,256.9,500,250.4Z"/><path class="cls-8" d="M287,340.5,268.4,500A248.9,248.9,0,0,0,416,437.5L287.1,340.5Z"/><polygon class="cls-9" points="442.2 132.7 287.1 339.6 287 340.5 287.1 340.5 499.2 269.9 442.2 132.7"/><path class="cls-10" d="M287.1,340.5,416,437.5a250.1,250.1,0,0,0,83.2-167.4h-.1Z"/></g><g id="top-left"><path class="cls-11" d="M132.9,29.3A251,251,0,0,0,53.5,96.1L165.1,75.7Z"/><path class="cls-12" d="M53.5,96.1A249.7,249.7,0,0,0,3.1,213.2L165.3,75.9l-.2-.2Z"/><path class="cls-13" d="M250,0A248.9,248.9,0,0,0,132.9,29.3l32.2,46.4h.5L254.7.2Z"/></g><g id="top-right"><path class="cls-14" d="M303.1,5.9h0l-8.9,89.3L401.8,51.8A249.8,249.8,0,0,0,303.1,5.9Z"/><path class="cls-15" d="M456.6,109.8a250.1,250.1,0,0,0-54.8-58L294.2,95.2v.4Z"/></g></svg>