<?xml version="1.0" encoding="UTF-8" standalone="no"?>
<svg
   xmlns:dc="http://purl.org/dc/elements/1.1/"
   xmlns:cc="http://creativecommons.org/ns#"
   xmlns:rdf="http://www.w3.org/1999/02/22-rdf-syntax-ns#"
   xmlns:svg="http://www.w3.org/2000/svg"
   xmlns="http://www.w3.org/2000/svg"
   xmlns:sodipodi="http://sodipodi.sourceforge.net/DTD/sodipodi-0.dtd"
   xmlns:inkscape="http://www.inkscape.org/namespaces/inkscape"
   width="500"
   height="500"
   viewBox="0 0 500 500"
   version="1.1"
   id="svg113"
   sodipodi:docname="logo.svg"
   inkscape:version="0.92.3 (2405546, 2018-03-11)">
  <metadata
     id="metadata117">
    <rdf:RDF>
      <cc:Work
         rdf:about="">
        <dc:format>image/svg+xml</dc:format>
        <dc:type
           rdf:resource="http://purl.org/dc/dcmitype/StillImage" />
      </cc:Work>
    </rdf:RDF>
  </metadata>
  <sodipodi:namedview
     pagecolor="#ffffff"
     bordercolor="#666666"
     borderopacity="1"
     objecttolerance="10"
     gridtolerance="10"
     guidetolerance="10"
     inkscape:pageopacity="0"
     inkscape:pageshadow="2"
     inkscape:window-width="3706"
     inkscape:window-height="2049"
     id="namedview115"
     showgrid="false"
     inkscape:zoom="0.472"
     inkscape:cx="-450.2118644"
     inkscape:cy="250"
     inkscape:window-x="134"
     inkscape:window-y="55"
     inkscape:window-maximized="1"
     inkscape:current-layer="svg113" />
  <defs
     id="defs74">
    <style
       id="style2">.cls-1{fill:#fff;}.cls-2{fill:url(#Unbenannter_Verlauf_276);}.cls-3{fill:url(#Unbenannter_Verlauf_173);}.cls-4{fill:url(#Unbenannter_Verlauf_269);}.cls-5{fill:url(#Unbenannter_Verlauf_158);}.cls-6{fill:url(#Unbenannter_Verlauf_232);}.cls-7{fill:url(#Unbenannter_Verlauf_249);}.cls-8{fill:url(#Unbenannter_Verlauf_265);}.cls-9{fill:url(#Unbenannter_Verlauf_240);}.cls-10{fill:url(#Unbenannter_Verlauf_257);}.cls-11{fill:url(#Unbenannter_Verlauf_119);}.cls-12{fill:url(#Unbenannter_Verlauf_283);}.cls-13{fill:url(#Unbenannter_Verlauf_110);}.cls-14{fill:url(#Unbenannter_Verlauf_99);}.cls-15{fill:url(#Unbenannter_Verlauf_103);}</style>
    <linearGradient
       id="Unbenannter_Verlauf_276"
       x1="63.24"
       y1="207.85"
       x2="125.84"
       y2="316.28"
       gradientUnits="userSpaceOnUse">
      <stop
         offset="0"
         stop-color="#214cd4"
         id="stop4" />
      <stop
         offset="1"
         stop-color="#2869f3"
         id="stop6" />
    </linearGradient>
    <linearGradient
       id="Unbenannter_Verlauf_173"
       x1="186.46"
       y1="468.46"
       x2="60.28"
       y2="342.28"
       gradientUnits="userSpaceOnUse">
      <stop
         offset="0"
         stop-color="#217aff"
         id="stop9" />
      <stop
         offset="1"
         stop-color="#4ca7ff"
         id="stop11" />
    </linearGradient>
    <linearGradient
       id="Unbenannter_Verlauf_269"
       x1="104.8"
       y1="301.47"
       x2="104.8"
       y2="384.05"
       gradientUnits="userSpaceOnUse">
      <stop
         offset="0"
         stop-color="#0260da"
         id="stop14" />
      <stop
         offset="1"
         stop-color="#307cf6"
         id="stop16" />
    </linearGradient>
    <linearGradient
       id="Unbenannter_Verlauf_158"
       x1="107.68"
       y1="197.72"
       x2="107.68"
       y2="370.97"
       gradientUnits="userSpaceOnUse">
      <stop
         offset="0"
         stop-color="#0273f0"
         id="stop19" />
      <stop
         offset="1"
         stop-color="#4997f6"
         id="stop21" />
    </linearGradient>
    <linearGradient
       id="Unbenannter_Verlauf_232"
       x1="364.63"
       y1="132.59"
       x2="364.63"
       y2="339.64"
       gradientUnits="userSpaceOnUse">
      <stop
         offset="0"
         stop-color="#51298d"
         id="stop24" />
      <stop
         offset="1"
         stop-color="#2a3fc9"
         id="stop26" />
    </linearGradient>
    <linearGradient
       id="Unbenannter_Verlauf_249"
       x1="442.16"
       y1="198.15"
       x2="500"
       y2="198.15"
       gradientUnits="userSpaceOnUse">
      <stop
         offset="0"
         stop-color="#6f2b9a"
         id="stop29" />
      <stop
         offset="1"
         stop-color="#2c3cc3"
         id="stop31" />
    </linearGradient>
    <linearGradient
       id="Unbenannter_Verlauf_265"
       x1="268.44"
       y1="420.24"
       x2="415.97"
       y2="420.24"
       gradientUnits="userSpaceOnUse">
      <stop
         offset="0"
         stop-color="#0042c8"
         id="stop34" />
      <stop
         offset="1"
         stop-color="#0d5afb"
         id="stop36" />
    </linearGradient>
    <linearGradient
       id="Unbenannter_Verlauf_240"
       x1="339"
       y1="192.28"
       x2="412.67"
       y2="319.88"
       gradientUnits="userSpaceOnUse">
      <stop
         offset="0"
         stop-color="#2e31a2"
         id="stop39" />
      <stop
         offset="1"
         stop-color="#1549e9"
         id="stop41" />
    </linearGradient>
    <linearGradient
       id="Unbenannter_Verlauf_257"
       x1="381.86"
       y1="285.74"
       x2="456.12"
       y2="414.35"
       gradientUnits="userSpaceOnUse">
      <stop
         offset="0"
         stop-color="#0039b4"
         id="stop44" />
      <stop
         offset="1"
         stop-color="#004cf3"
         id="stop46" />
    </linearGradient>
    <linearGradient
       id="Unbenannter_Verlauf_119"
       x1="53.46"
       y1="62.68"
       x2="165.14"
       y2="62.68"
       gradientUnits="userSpaceOnUse">
      <stop
         offset="0"
         stop-color="#7c1d70"
         id="stop49" />
      <stop
         offset="1"
         stop-color="#a934bb"
         id="stop51" />
    </linearGradient>
    <linearGradient
       id="Unbenannter_Verlauf_283"
       x1="84.19"
       y1="75.66"
       x2="84.19"
       y2="213.15"
       gradientUnits="userSpaceOnUse">
      <stop
         offset="0"
         stop-color="#732580"
         id="stop54" />
      <stop
         offset="1"
         stop-color="#af299e"
         id="stop56" />
    </linearGradient>
    <linearGradient
       id="Unbenannter_Verlauf_110"
       x1="148.44"
       y1="2.45"
       x2="227.16"
       y2="47.91"
       gradientUnits="userSpaceOnUse">
      <stop
         offset="0"
         stop-color="#74165f"
         id="stop59" />
      <stop
         offset="1"
         stop-color="#aa31b4"
         id="stop61" />
    </linearGradient>
    <linearGradient
       id="Unbenannter_Verlauf_99"
       x1="348.01"
       y1="5.87"
       x2="348.01"
       y2="95.22"
       gradientUnits="userSpaceOnUse">
      <stop
         offset="0"
         stop-color="#6e1a67"
         id="stop64" />
      <stop
         offset="1"
         stop-color="#9330b5"
         id="stop66" />
    </linearGradient>
    <linearGradient
       id="Unbenannter_Verlauf_103"
       x1="294.15"
       y1="80.78"
       x2="456.59"
       y2="80.78"
       gradientUnits="userSpaceOnUse">
      <stop
         offset="0"
         stop-color="#7e1a6d"
         id="stop69" />
      <stop
         offset="1"
         stop-color="#a734c4"
         id="stop71" />
    </linearGradient>
  </defs>
  <title
     id="title76">logo</title>
  <g
     id="bottom-left">
    <path
       class="cls-2"
       d="M.3,244.2q-.2,3.1-.3,6.2A250.2,250.2,0,0,0,31.1,371L183.8,197.8Z"
       id="path81" />
    <path
       class="cls-3"
       d="M31.3,371.3a249.9,249.9,0,0,0,137,115.4L173.9,384Z"
       id="path83" />
    <path
       class="cls-4"
       d="M31.1,371h0l.2.3L173.9,384l4.6-82.6Z"
       id="path85" />
    <polygon
       class="cls-5"
       points="184.3 197.7 183.8 197.8 31.1 371 178.5 301.5 184.3 197.7"
       id="polygon87" />
  </g>
  <g
     id="botton-right">
    <polygon
       class="cls-6"
       points="442.1 132.6 307.3 166.7 287.1 339.6 442.2 132.7 442.1 132.6"
       id="polygon90" />
    <path
       class="cls-7"
       d="M500,250.4a250.6,250.6,0,0,0-33.2-124l-24.5,6.2v.2l57,137.2h.1C499.7,263.5,500,256.9,500,250.4Z"
       id="path92" />
    <path
       class="cls-8"
       d="M287,340.5,268.4,500A248.9,248.9,0,0,0,416,437.5L287.1,340.5Z"
       id="path94" />
    <polygon
       class="cls-9"
       points="442.2 132.7 287.1 339.6 287 340.5 287.1 340.5 499.2 269.9 442.2 132.7"
       id="polygon96" />
    <path
       class="cls-10"
       d="M287.1,340.5,416,437.5a250.1,250.1,0,0,0,83.2-167.4h-.1Z"
       id="path98" />
  </g>
  <g
     id="top-left">
    <path
       class="cls-11"
       d="M132.9,29.3A251,251,0,0,0,53.5,96.1L165.1,75.7Z"
       id="path101" />
    <path
       class="cls-12"
       d="M53.5,96.1A249.7,249.7,0,0,0,3.1,213.2L165.3,75.9l-.2-.2Z"
       id="path103" />
    <path
       class="cls-13"
       d="M250,0A248.9,248.9,0,0,0,132.9,29.3l32.2,46.4h.5L254.7.2Z"
       id="path105" />
  </g>
  <g
     id="top-right">
    <path
       class="cls-14"
       d="M303.1,5.9h0l-8.9,89.3L401.8,51.8A249.8,249.8,0,0,0,303.1,5.9Z"
       id="path108" />
    <path
       class="cls-15"
       d="M456.6,109.8a250.1,250.1,0,0,0-54.8-58L294.2,95.2v.4Z"
       id="path110" />
  </g>
</svg>
